<mxfile host="app.diagrams.net" modified="2023-06-12T08:53:57.295Z" agent="Mozilla/5.0 (Windows NT 10.0; Win64; x64) AppleWebKit/537.36 (KHTML, like Gecko) Chrome/114.0.0.0 Safari/537.36" version="21.3.6" etag="NQy3Xngd1InYAG3RsTOI" type="github">
  <diagram name="第 1 页" id="-MxqXaStnTwVK_l81B4G">
    <mxGraphModel>
      <root>
        <mxCell id="0" />
        <mxCell id="1" parent="0" />
      </root>
    </mxGraphModel>
  </diagram>
</mxfile>
